<mxfile host="app.diagrams.net" agent="Mozilla/5.0 (Windows NT 10.0; Win64; x64) AppleWebKit/537.36 (KHTML, like Gecko) Chrome/135.0.0.0 Safari/537.36" version="26.2.9">
  <diagram name="Page-1" id="2a216829-ef6e-dabb-86c1-c78162f3ba2b">
    <mxGraphModel dx="874" dy="439" grid="1" gridSize="10" guides="1" tooltips="1" connect="1" arrows="1" fold="1" page="1" pageScale="1" pageWidth="850" pageHeight="1100" background="none" math="0" shadow="0">
      <root>
        <mxCell id="0" />
        <mxCell id="1" parent="0" />
        <mxCell id="MbwK4NX2cLLq4k2uDTTq-6" value="Tourism Management System" style="swimlane;childLayout=stackLayout;resizeParent=1;resizeParentMax=0;horizontal=1;startSize=20;horizontalStack=0;html=1;shadow=1;" vertex="1" parent="1">
          <mxGeometry x="40" y="210" width="1330" height="370" as="geometry">
            <mxRectangle x="180" y="200" width="60" height="30" as="alternateBounds" />
          </mxGeometry>
        </mxCell>
        <mxCell id="MbwK4NX2cLLq4k2uDTTq-7" value="Tourists" style="swimlane;startSize=20;horizontal=0;html=1;" vertex="1" parent="MbwK4NX2cLLq4k2uDTTq-6">
          <mxGeometry y="20" width="1330" height="130" as="geometry" />
        </mxCell>
        <mxCell id="MbwK4NX2cLLq4k2uDTTq-86" value="" style="ellipse;whiteSpace=wrap;html=1;aspect=fixed;labelBorderColor=none;strokeWidth=3;" vertex="1" parent="MbwK4NX2cLLq4k2uDTTq-7">
          <mxGeometry x="1280" y="50" width="30" height="30" as="geometry" />
        </mxCell>
        <mxCell id="MbwK4NX2cLLq4k2uDTTq-10" value="" style="ellipse;whiteSpace=wrap;html=1;aspect=fixed;" vertex="1" parent="MbwK4NX2cLLq4k2uDTTq-7">
          <mxGeometry x="30" y="45" width="30" height="30" as="geometry" />
        </mxCell>
        <mxCell id="MbwK4NX2cLLq4k2uDTTq-11" value="Access the system" style="rounded=1;whiteSpace=wrap;html=1;" vertex="1" parent="MbwK4NX2cLLq4k2uDTTq-7">
          <mxGeometry x="100" y="35" width="70" height="50" as="geometry" />
        </mxCell>
        <mxCell id="MbwK4NX2cLLq4k2uDTTq-12" value="" style="endArrow=classic;html=1;rounded=0;" edge="1" parent="MbwK4NX2cLLq4k2uDTTq-7">
          <mxGeometry width="50" height="50" relative="1" as="geometry">
            <mxPoint x="60" y="59.5" as="sourcePoint" />
            <mxPoint x="100" y="60" as="targetPoint" />
          </mxGeometry>
        </mxCell>
        <mxCell id="MbwK4NX2cLLq4k2uDTTq-31" value="" style="edgeStyle=orthogonalEdgeStyle;rounded=0;orthogonalLoop=1;jettySize=auto;html=1;" edge="1" parent="MbwK4NX2cLLq4k2uDTTq-7" source="MbwK4NX2cLLq4k2uDTTq-15" target="MbwK4NX2cLLq4k2uDTTq-30">
          <mxGeometry relative="1" as="geometry" />
        </mxCell>
        <mxCell id="MbwK4NX2cLLq4k2uDTTq-15" value="" style="rhombus;whiteSpace=wrap;html=1;" vertex="1" parent="MbwK4NX2cLLq4k2uDTTq-7">
          <mxGeometry x="320" y="25" width="70" height="70" as="geometry" />
        </mxCell>
        <mxCell id="MbwK4NX2cLLq4k2uDTTq-22" value="See information" style="rounded=1;whiteSpace=wrap;html=1;" vertex="1" parent="MbwK4NX2cLLq4k2uDTTq-7">
          <mxGeometry x="210" y="35" width="70" height="50" as="geometry" />
        </mxCell>
        <mxCell id="MbwK4NX2cLLq4k2uDTTq-30" value="Book a service" style="rounded=1;whiteSpace=wrap;html=1;" vertex="1" parent="MbwK4NX2cLLq4k2uDTTq-7">
          <mxGeometry x="430" y="35" width="70" height="50" as="geometry" />
        </mxCell>
        <mxCell id="MbwK4NX2cLLq4k2uDTTq-32" value="Select a service" style="ellipse;whiteSpace=wrap;html=1;aspect=fixed;" vertex="1" parent="MbwK4NX2cLLq4k2uDTTq-7">
          <mxGeometry x="330" y="35" width="50" height="50" as="geometry" />
        </mxCell>
        <mxCell id="MbwK4NX2cLLq4k2uDTTq-166" style="edgeStyle=orthogonalEdgeStyle;rounded=0;orthogonalLoop=1;jettySize=auto;html=1;" edge="1" parent="MbwK4NX2cLLq4k2uDTTq-7" source="MbwK4NX2cLLq4k2uDTTq-33" target="MbwK4NX2cLLq4k2uDTTq-64">
          <mxGeometry relative="1" as="geometry" />
        </mxCell>
        <mxCell id="MbwK4NX2cLLq4k2uDTTq-170" value="No" style="edgeLabel;html=1;align=center;verticalAlign=middle;resizable=0;points=[];" vertex="1" connectable="0" parent="MbwK4NX2cLLq4k2uDTTq-166">
          <mxGeometry x="-0.3143" y="-1" relative="1" as="geometry">
            <mxPoint y="1" as="offset" />
          </mxGeometry>
        </mxCell>
        <mxCell id="MbwK4NX2cLLq4k2uDTTq-33" value="" style="rhombus;whiteSpace=wrap;html=1;" vertex="1" parent="MbwK4NX2cLLq4k2uDTTq-7">
          <mxGeometry x="660" y="37.5" width="60" height="60" as="geometry" />
        </mxCell>
        <mxCell id="MbwK4NX2cLLq4k2uDTTq-35" value="" style="endArrow=none;html=1;rounded=0;entryX=1;entryY=0;entryDx=0;entryDy=0;exitX=0;exitY=1;exitDx=0;exitDy=0;elbow=vertical;" edge="1" parent="MbwK4NX2cLLq4k2uDTTq-7" source="MbwK4NX2cLLq4k2uDTTq-33" target="MbwK4NX2cLLq4k2uDTTq-33">
          <mxGeometry width="50" height="50" relative="1" as="geometry">
            <mxPoint x="540" y="177.5" as="sourcePoint" />
            <mxPoint x="570" y="147.5" as="targetPoint" />
          </mxGeometry>
        </mxCell>
        <mxCell id="MbwK4NX2cLLq4k2uDTTq-36" value="" style="endArrow=none;html=1;rounded=0;entryX=1;entryY=1;entryDx=0;entryDy=0;exitX=0;exitY=0;exitDx=0;exitDy=0;elbow=horizontal;" edge="1" parent="MbwK4NX2cLLq4k2uDTTq-7" source="MbwK4NX2cLLq4k2uDTTq-33" target="MbwK4NX2cLLq4k2uDTTq-33">
          <mxGeometry width="50" height="50" relative="1" as="geometry">
            <mxPoint x="520" y="197.5" as="sourcePoint" />
            <mxPoint x="570" y="147.5" as="targetPoint" />
          </mxGeometry>
        </mxCell>
        <mxCell id="MbwK4NX2cLLq4k2uDTTq-64" value="Make payment" style="rounded=1;whiteSpace=wrap;html=1;" vertex="1" parent="MbwK4NX2cLLq4k2uDTTq-7">
          <mxGeometry x="790" y="42.5" width="70" height="50" as="geometry" />
        </mxCell>
        <mxCell id="MbwK4NX2cLLq4k2uDTTq-66" value="" style="rhombus;whiteSpace=wrap;html=1;" vertex="1" parent="MbwK4NX2cLLq4k2uDTTq-7">
          <mxGeometry x="900" y="30" width="60" height="60" as="geometry" />
        </mxCell>
        <mxCell id="MbwK4NX2cLLq4k2uDTTq-68" value="" style="endArrow=none;html=1;rounded=0;exitX=0;exitY=1;exitDx=0;exitDy=0;" edge="1" parent="MbwK4NX2cLLq4k2uDTTq-7" source="MbwK4NX2cLLq4k2uDTTq-66">
          <mxGeometry width="50" height="50" relative="1" as="geometry">
            <mxPoint x="840" y="170" as="sourcePoint" />
            <mxPoint x="945" y="45" as="targetPoint" />
          </mxGeometry>
        </mxCell>
        <mxCell id="MbwK4NX2cLLq4k2uDTTq-69" value="" style="endArrow=none;html=1;rounded=0;entryX=1;entryY=1;entryDx=0;entryDy=0;exitX=0;exitY=0;exitDx=0;exitDy=0;elbow=vertical;" edge="1" parent="MbwK4NX2cLLq4k2uDTTq-7" source="MbwK4NX2cLLq4k2uDTTq-66" target="MbwK4NX2cLLq4k2uDTTq-66">
          <mxGeometry width="50" height="50" relative="1" as="geometry">
            <mxPoint x="690" y="190" as="sourcePoint" />
            <mxPoint x="740" y="140" as="targetPoint" />
          </mxGeometry>
        </mxCell>
        <mxCell id="MbwK4NX2cLLq4k2uDTTq-90" value="Successful?" style="text;html=1;align=center;verticalAlign=middle;whiteSpace=wrap;rounded=0;" vertex="1" parent="MbwK4NX2cLLq4k2uDTTq-7">
          <mxGeometry x="900" y="90" width="60" height="30" as="geometry" />
        </mxCell>
        <mxCell id="MbwK4NX2cLLq4k2uDTTq-70" value="Add another?" style="text;html=1;align=center;verticalAlign=middle;whiteSpace=wrap;rounded=0;" vertex="1" parent="MbwK4NX2cLLq4k2uDTTq-7">
          <mxGeometry x="660" y="97.5" width="60" height="30" as="geometry" />
        </mxCell>
        <mxCell id="MbwK4NX2cLLq4k2uDTTq-77" value="" style="endArrow=classic;html=1;rounded=0;entryX=0.5;entryY=0;entryDx=0;entryDy=0;" edge="1" parent="MbwK4NX2cLLq4k2uDTTq-7" target="MbwK4NX2cLLq4k2uDTTq-64">
          <mxGeometry width="50" height="50" relative="1" as="geometry">
            <mxPoint x="980" y="60" as="sourcePoint" />
            <mxPoint x="820" y="34" as="targetPoint" />
            <Array as="points">
              <mxPoint x="980" y="10" />
              <mxPoint x="825" y="10" />
            </Array>
          </mxGeometry>
        </mxCell>
        <mxCell id="MbwK4NX2cLLq4k2uDTTq-78" value="No? Try again" style="edgeLabel;html=1;align=center;verticalAlign=middle;resizable=0;points=[];" vertex="1" connectable="0" parent="MbwK4NX2cLLq4k2uDTTq-77">
          <mxGeometry x="0.2261" y="-2" relative="1" as="geometry">
            <mxPoint as="offset" />
          </mxGeometry>
        </mxCell>
        <mxCell id="MbwK4NX2cLLq4k2uDTTq-47" value="" style="endArrow=classic;html=1;rounded=0;entryX=0.5;entryY=0;entryDx=0;entryDy=0;exitX=0.5;exitY=0;exitDx=0;exitDy=0;" edge="1" parent="MbwK4NX2cLLq4k2uDTTq-7" source="MbwK4NX2cLLq4k2uDTTq-33" target="MbwK4NX2cLLq4k2uDTTq-22">
          <mxGeometry width="50" height="50" relative="1" as="geometry">
            <mxPoint x="610" y="60" as="sourcePoint" />
            <mxPoint x="350" y="100" as="targetPoint" />
            <Array as="points">
              <mxPoint x="690" y="10" />
              <mxPoint x="610" y="10" />
              <mxPoint x="530" y="10" />
              <mxPoint x="245" y="10" />
            </Array>
          </mxGeometry>
        </mxCell>
        <mxCell id="MbwK4NX2cLLq4k2uDTTq-48" value="Yes" style="edgeLabel;html=1;align=center;verticalAlign=middle;resizable=0;points=[];" vertex="1" connectable="0" parent="MbwK4NX2cLLq4k2uDTTq-47">
          <mxGeometry x="0.1333" y="2" relative="1" as="geometry">
            <mxPoint as="offset" />
          </mxGeometry>
        </mxCell>
        <mxCell id="MbwK4NX2cLLq4k2uDTTq-141" value="" style="ellipse;whiteSpace=wrap;html=1;aspect=fixed;" vertex="1" parent="MbwK4NX2cLLq4k2uDTTq-7">
          <mxGeometry x="530" y="50" width="35" height="35" as="geometry" />
        </mxCell>
        <mxCell id="MbwK4NX2cLLq4k2uDTTq-142" value="" style="ellipse;whiteSpace=wrap;html=1;aspect=fixed;" vertex="1" parent="MbwK4NX2cLLq4k2uDTTq-7">
          <mxGeometry x="532.5" y="52.5" width="30" height="30" as="geometry" />
        </mxCell>
        <mxCell id="MbwK4NX2cLLq4k2uDTTq-143" value="" style="verticalLabelPosition=bottom;shadow=0;dashed=0;align=center;html=1;verticalAlign=top;strokeWidth=1;shape=mxgraph.mockup.misc.mail2;strokeColor=#999999;" vertex="1" parent="MbwK4NX2cLLq4k2uDTTq-7">
          <mxGeometry x="537.5" y="58.75" width="20" height="17.5" as="geometry" />
        </mxCell>
        <mxCell id="MbwK4NX2cLLq4k2uDTTq-149" value="Not available" style="text;html=1;align=center;verticalAlign=middle;whiteSpace=wrap;rounded=0;" vertex="1" parent="MbwK4NX2cLLq4k2uDTTq-7">
          <mxGeometry x="517.5" y="12.5" width="60" height="30" as="geometry" />
        </mxCell>
        <mxCell id="MbwK4NX2cLLq4k2uDTTq-159" value="" style="edgeStyle=orthogonalEdgeStyle;rounded=0;orthogonalLoop=1;jettySize=auto;html=1;" edge="1" parent="MbwK4NX2cLLq4k2uDTTq-7" source="MbwK4NX2cLLq4k2uDTTq-158" target="MbwK4NX2cLLq4k2uDTTq-86">
          <mxGeometry relative="1" as="geometry" />
        </mxCell>
        <mxCell id="MbwK4NX2cLLq4k2uDTTq-158" value="Leave a review" style="rounded=1;whiteSpace=wrap;html=1;" vertex="1" parent="MbwK4NX2cLLq4k2uDTTq-7">
          <mxGeometry x="1150" y="40" width="70" height="50" as="geometry" />
        </mxCell>
        <mxCell id="MbwK4NX2cLLq4k2uDTTq-161" value="" style="ellipse;whiteSpace=wrap;html=1;aspect=fixed;" vertex="1" parent="MbwK4NX2cLLq4k2uDTTq-7">
          <mxGeometry x="1050" y="47.5" width="35" height="35" as="geometry" />
        </mxCell>
        <mxCell id="MbwK4NX2cLLq4k2uDTTq-165" style="edgeStyle=orthogonalEdgeStyle;rounded=0;orthogonalLoop=1;jettySize=auto;html=1;entryX=0;entryY=0.5;entryDx=0;entryDy=0;" edge="1" parent="MbwK4NX2cLLq4k2uDTTq-7" source="MbwK4NX2cLLq4k2uDTTq-162" target="MbwK4NX2cLLq4k2uDTTq-158">
          <mxGeometry relative="1" as="geometry" />
        </mxCell>
        <mxCell id="MbwK4NX2cLLq4k2uDTTq-162" value="" style="ellipse;whiteSpace=wrap;html=1;aspect=fixed;" vertex="1" parent="MbwK4NX2cLLq4k2uDTTq-7">
          <mxGeometry x="1052.5" y="50" width="30" height="30" as="geometry" />
        </mxCell>
        <mxCell id="MbwK4NX2cLLq4k2uDTTq-163" value="" style="verticalLabelPosition=bottom;shadow=0;dashed=0;align=center;html=1;verticalAlign=top;strokeWidth=1;shape=mxgraph.mockup.misc.mail2;strokeColor=#999999;" vertex="1" parent="MbwK4NX2cLLq4k2uDTTq-7">
          <mxGeometry x="1057.5" y="56.25" width="20" height="17.5" as="geometry" />
        </mxCell>
        <mxCell id="MbwK4NX2cLLq4k2uDTTq-164" value="Completed" style="text;html=1;align=center;verticalAlign=middle;whiteSpace=wrap;rounded=0;" vertex="1" parent="MbwK4NX2cLLq4k2uDTTq-7">
          <mxGeometry x="1037.5" y="22.5" width="60" height="22.5" as="geometry" />
        </mxCell>
        <mxCell id="MbwK4NX2cLLq4k2uDTTq-8" value="System" style="swimlane;startSize=20;horizontal=0;html=1;" vertex="1" parent="MbwK4NX2cLLq4k2uDTTq-6">
          <mxGeometry y="150" width="1330" height="110" as="geometry" />
        </mxCell>
        <mxCell id="MbwK4NX2cLLq4k2uDTTq-80" value="Proccess payment" style="rounded=1;whiteSpace=wrap;html=1;" vertex="1" parent="MbwK4NX2cLLq4k2uDTTq-8">
          <mxGeometry x="810" y="20" width="70" height="50" as="geometry" />
        </mxCell>
        <mxCell id="MbwK4NX2cLLq4k2uDTTq-91" value="Display information" style="rounded=1;whiteSpace=wrap;html=1;" vertex="1" parent="MbwK4NX2cLLq4k2uDTTq-8">
          <mxGeometry x="100" y="15" width="70" height="50" as="geometry" />
        </mxCell>
        <mxCell id="MbwK4NX2cLLq4k2uDTTq-97" value="Validate details" style="rounded=1;whiteSpace=wrap;html=1;" vertex="1" parent="MbwK4NX2cLLq4k2uDTTq-8">
          <mxGeometry x="290" y="17.5" width="70" height="50" as="geometry" />
        </mxCell>
        <mxCell id="MbwK4NX2cLLq4k2uDTTq-101" value="Confirm booking" style="rounded=1;whiteSpace=wrap;html=1;" vertex="1" parent="MbwK4NX2cLLq4k2uDTTq-8">
          <mxGeometry x="960" y="40" width="70" height="50" as="geometry" />
        </mxCell>
        <mxCell id="MbwK4NX2cLLq4k2uDTTq-137" value="" style="edgeStyle=orthogonalEdgeStyle;rounded=0;orthogonalLoop=1;jettySize=auto;html=1;" edge="1" parent="MbwK4NX2cLLq4k2uDTTq-8" source="MbwK4NX2cLLq4k2uDTTq-114" target="MbwK4NX2cLLq4k2uDTTq-135">
          <mxGeometry relative="1" as="geometry" />
        </mxCell>
        <mxCell id="MbwK4NX2cLLq4k2uDTTq-114" value="Check availability" style="rounded=1;whiteSpace=wrap;html=1;" vertex="1" parent="MbwK4NX2cLLq4k2uDTTq-8">
          <mxGeometry x="430" y="17.5" width="70" height="50" as="geometry" />
        </mxCell>
        <mxCell id="MbwK4NX2cLLq4k2uDTTq-135" value="" style="rhombus;whiteSpace=wrap;html=1;" vertex="1" parent="MbwK4NX2cLLq4k2uDTTq-8">
          <mxGeometry x="550" y="20" width="50" height="45" as="geometry" />
        </mxCell>
        <mxCell id="MbwK4NX2cLLq4k2uDTTq-139" value="" style="endArrow=none;html=1;rounded=0;entryX=1;entryY=1;entryDx=0;entryDy=0;exitX=0;exitY=0;exitDx=0;exitDy=0;elbow=vertical;" edge="1" parent="MbwK4NX2cLLq4k2uDTTq-8" source="MbwK4NX2cLLq4k2uDTTq-135" target="MbwK4NX2cLLq4k2uDTTq-135">
          <mxGeometry width="50" height="50" relative="1" as="geometry">
            <mxPoint x="875" y="-137.5" as="sourcePoint" />
            <mxPoint x="905" y="-107.5" as="targetPoint" />
            <Array as="points" />
          </mxGeometry>
        </mxCell>
        <mxCell id="MbwK4NX2cLLq4k2uDTTq-140" value="" style="endArrow=none;html=1;rounded=0;exitX=1;exitY=0;exitDx=0;exitDy=0;entryX=0;entryY=1;entryDx=0;entryDy=0;" edge="1" parent="MbwK4NX2cLLq4k2uDTTq-8" source="MbwK4NX2cLLq4k2uDTTq-135" target="MbwK4NX2cLLq4k2uDTTq-135">
          <mxGeometry width="50" height="50" relative="1" as="geometry">
            <mxPoint x="875" y="-107.5" as="sourcePoint" />
            <mxPoint x="905" y="-137.5" as="targetPoint" />
          </mxGeometry>
        </mxCell>
        <mxCell id="MbwK4NX2cLLq4k2uDTTq-82" style="edgeStyle=orthogonalEdgeStyle;rounded=0;orthogonalLoop=1;jettySize=auto;html=1;exitX=0.25;exitY=1;exitDx=0;exitDy=0;entryX=0.25;entryY=0;entryDx=0;entryDy=0;" edge="1" parent="MbwK4NX2cLLq4k2uDTTq-6" source="MbwK4NX2cLLq4k2uDTTq-64" target="MbwK4NX2cLLq4k2uDTTq-80">
          <mxGeometry relative="1" as="geometry" />
        </mxCell>
        <mxCell id="MbwK4NX2cLLq4k2uDTTq-84" style="edgeStyle=orthogonalEdgeStyle;rounded=0;orthogonalLoop=1;jettySize=auto;html=1;exitX=1;exitY=0.5;exitDx=0;exitDy=0;entryX=0;entryY=0.5;entryDx=0;entryDy=0;" edge="1" parent="MbwK4NX2cLLq4k2uDTTq-6" source="MbwK4NX2cLLq4k2uDTTq-80" target="MbwK4NX2cLLq4k2uDTTq-66">
          <mxGeometry relative="1" as="geometry" />
        </mxCell>
        <mxCell id="MbwK4NX2cLLq4k2uDTTq-92" style="edgeStyle=orthogonalEdgeStyle;rounded=0;orthogonalLoop=1;jettySize=auto;html=1;exitX=0.5;exitY=1;exitDx=0;exitDy=0;entryX=0.5;entryY=0;entryDx=0;entryDy=0;" edge="1" parent="MbwK4NX2cLLq4k2uDTTq-6" source="MbwK4NX2cLLq4k2uDTTq-11" target="MbwK4NX2cLLq4k2uDTTq-91">
          <mxGeometry relative="1" as="geometry" />
        </mxCell>
        <mxCell id="MbwK4NX2cLLq4k2uDTTq-93" style="edgeStyle=orthogonalEdgeStyle;rounded=0;orthogonalLoop=1;jettySize=auto;html=1;entryX=0;entryY=0.5;entryDx=0;entryDy=0;" edge="1" parent="MbwK4NX2cLLq4k2uDTTq-6" source="MbwK4NX2cLLq4k2uDTTq-91" target="MbwK4NX2cLLq4k2uDTTq-22">
          <mxGeometry relative="1" as="geometry">
            <mxPoint x="250" y="120" as="targetPoint" />
          </mxGeometry>
        </mxCell>
        <mxCell id="MbwK4NX2cLLq4k2uDTTq-9" value="Providers" style="swimlane;startSize=20;horizontal=0;html=1;" vertex="1" parent="MbwK4NX2cLLq4k2uDTTq-6">
          <mxGeometry y="260" width="1330" height="110" as="geometry" />
        </mxCell>
        <mxCell id="MbwK4NX2cLLq4k2uDTTq-95" value="Add information" style="rounded=1;whiteSpace=wrap;html=1;" vertex="1" parent="MbwK4NX2cLLq4k2uDTTq-9">
          <mxGeometry x="100" y="10" width="70" height="50" as="geometry" />
        </mxCell>
        <mxCell id="MbwK4NX2cLLq4k2uDTTq-109" value="View analytics" style="rounded=1;whiteSpace=wrap;html=1;" vertex="1" parent="MbwK4NX2cLLq4k2uDTTq-9">
          <mxGeometry x="960" y="30" width="70" height="50" as="geometry" />
        </mxCell>
        <mxCell id="MbwK4NX2cLLq4k2uDTTq-174" value="View reviews" style="rounded=1;whiteSpace=wrap;html=1;" vertex="1" parent="MbwK4NX2cLLq4k2uDTTq-9">
          <mxGeometry x="1150" y="30" width="70" height="50" as="geometry" />
        </mxCell>
        <mxCell id="MbwK4NX2cLLq4k2uDTTq-96" style="edgeStyle=orthogonalEdgeStyle;rounded=0;orthogonalLoop=1;jettySize=auto;html=1;entryX=0.5;entryY=1;entryDx=0;entryDy=0;" edge="1" parent="MbwK4NX2cLLq4k2uDTTq-6" source="MbwK4NX2cLLq4k2uDTTq-95" target="MbwK4NX2cLLq4k2uDTTq-91">
          <mxGeometry relative="1" as="geometry" />
        </mxCell>
        <mxCell id="MbwK4NX2cLLq4k2uDTTq-98" style="edgeStyle=orthogonalEdgeStyle;rounded=0;orthogonalLoop=1;jettySize=auto;html=1;entryX=0.5;entryY=1;entryDx=0;entryDy=0;" edge="1" parent="MbwK4NX2cLLq4k2uDTTq-6" source="MbwK4NX2cLLq4k2uDTTq-95" target="MbwK4NX2cLLq4k2uDTTq-97">
          <mxGeometry relative="1" as="geometry" />
        </mxCell>
        <mxCell id="MbwK4NX2cLLq4k2uDTTq-100" style="edgeStyle=orthogonalEdgeStyle;rounded=0;orthogonalLoop=1;jettySize=auto;html=1;entryX=0;entryY=0.5;entryDx=0;entryDy=0;exitX=0.5;exitY=1;exitDx=0;exitDy=0;" edge="1" parent="MbwK4NX2cLLq4k2uDTTq-6" source="MbwK4NX2cLLq4k2uDTTq-22" target="MbwK4NX2cLLq4k2uDTTq-97">
          <mxGeometry relative="1" as="geometry" />
        </mxCell>
        <mxCell id="MbwK4NX2cLLq4k2uDTTq-74" value="" style="endArrow=classic;html=1;rounded=0;exitX=1;exitY=0.5;exitDx=0;exitDy=0;entryX=0.5;entryY=0;entryDx=0;entryDy=0;" edge="1" parent="MbwK4NX2cLLq4k2uDTTq-6" source="MbwK4NX2cLLq4k2uDTTq-66" target="MbwK4NX2cLLq4k2uDTTq-101">
          <mxGeometry width="50" height="50" relative="1" as="geometry">
            <mxPoint x="560" y="210" as="sourcePoint" />
            <mxPoint x="890" y="80" as="targetPoint" />
            <Array as="points">
              <mxPoint x="995" y="80" />
            </Array>
          </mxGeometry>
        </mxCell>
        <mxCell id="MbwK4NX2cLLq4k2uDTTq-76" value="Yes" style="edgeLabel;html=1;align=center;verticalAlign=middle;resizable=0;points=[];" vertex="1" connectable="0" parent="MbwK4NX2cLLq4k2uDTTq-74">
          <mxGeometry x="0.3143" y="-1" relative="1" as="geometry">
            <mxPoint as="offset" />
          </mxGeometry>
        </mxCell>
        <mxCell id="MbwK4NX2cLLq4k2uDTTq-108" style="edgeStyle=orthogonalEdgeStyle;rounded=0;orthogonalLoop=1;jettySize=auto;html=1;entryX=0.5;entryY=1;entryDx=0;entryDy=0;" edge="1" parent="MbwK4NX2cLLq4k2uDTTq-6" source="MbwK4NX2cLLq4k2uDTTq-101" target="MbwK4NX2cLLq4k2uDTTq-162">
          <mxGeometry relative="1" as="geometry" />
        </mxCell>
        <mxCell id="MbwK4NX2cLLq4k2uDTTq-110" style="edgeStyle=orthogonalEdgeStyle;rounded=0;orthogonalLoop=1;jettySize=auto;html=1;" edge="1" parent="MbwK4NX2cLLq4k2uDTTq-6" source="MbwK4NX2cLLq4k2uDTTq-101" target="MbwK4NX2cLLq4k2uDTTq-109">
          <mxGeometry relative="1" as="geometry" />
        </mxCell>
        <mxCell id="MbwK4NX2cLLq4k2uDTTq-112" style="edgeStyle=orthogonalEdgeStyle;rounded=0;orthogonalLoop=1;jettySize=auto;html=1;entryX=0.5;entryY=1;entryDx=0;entryDy=0;" edge="1" parent="MbwK4NX2cLLq4k2uDTTq-6" source="MbwK4NX2cLLq4k2uDTTq-97" target="MbwK4NX2cLLq4k2uDTTq-15">
          <mxGeometry relative="1" as="geometry" />
        </mxCell>
        <mxCell id="MbwK4NX2cLLq4k2uDTTq-115" style="edgeStyle=orthogonalEdgeStyle;rounded=0;orthogonalLoop=1;jettySize=auto;html=1;entryX=0.5;entryY=0;entryDx=0;entryDy=0;" edge="1" parent="MbwK4NX2cLLq4k2uDTTq-6" source="MbwK4NX2cLLq4k2uDTTq-30" target="MbwK4NX2cLLq4k2uDTTq-114">
          <mxGeometry relative="1" as="geometry" />
        </mxCell>
        <mxCell id="MbwK4NX2cLLq4k2uDTTq-152" style="edgeStyle=orthogonalEdgeStyle;rounded=0;orthogonalLoop=1;jettySize=auto;html=1;entryX=0.5;entryY=1;entryDx=0;entryDy=0;" edge="1" parent="MbwK4NX2cLLq4k2uDTTq-6" source="MbwK4NX2cLLq4k2uDTTq-135" target="MbwK4NX2cLLq4k2uDTTq-141">
          <mxGeometry relative="1" as="geometry" />
        </mxCell>
        <mxCell id="MbwK4NX2cLLq4k2uDTTq-154" style="edgeStyle=orthogonalEdgeStyle;rounded=0;orthogonalLoop=1;jettySize=auto;html=1;entryX=0;entryY=0.5;entryDx=0;entryDy=0;" edge="1" parent="MbwK4NX2cLLq4k2uDTTq-6" source="MbwK4NX2cLLq4k2uDTTq-135" target="MbwK4NX2cLLq4k2uDTTq-33">
          <mxGeometry relative="1" as="geometry">
            <mxPoint x="660" y="90" as="targetPoint" />
          </mxGeometry>
        </mxCell>
        <mxCell id="MbwK4NX2cLLq4k2uDTTq-171" value="Available" style="edgeLabel;html=1;align=center;verticalAlign=middle;resizable=0;points=[];" vertex="1" connectable="0" parent="MbwK4NX2cLLq4k2uDTTq-154">
          <mxGeometry x="-0.265" y="1" relative="1" as="geometry">
            <mxPoint as="offset" />
          </mxGeometry>
        </mxCell>
        <mxCell id="MbwK4NX2cLLq4k2uDTTq-175" style="edgeStyle=orthogonalEdgeStyle;rounded=0;orthogonalLoop=1;jettySize=auto;html=1;entryX=0.5;entryY=0;entryDx=0;entryDy=0;" edge="1" parent="MbwK4NX2cLLq4k2uDTTq-6" source="MbwK4NX2cLLq4k2uDTTq-158" target="MbwK4NX2cLLq4k2uDTTq-174">
          <mxGeometry relative="1" as="geometry" />
        </mxCell>
      </root>
    </mxGraphModel>
  </diagram>
</mxfile>
